<svg height="511pt" viewBox="0 0 511 511.99905" width="511pt" xmlns="http://www.w3.org/2000/svg">
    <path fill="currentColor" d="m424.269531 423.769531c3.898438-3.910156 3.898438-10.242187 0-14.152343-3.910156-3.898438-10.242187-3.898438-14.152343 0-3.898438 3.910156-3.898438 10.242187 0 14.152343 3.910156 3.902344 10.242187 3.902344 14.152343 0zm0 0"/>
    <path fill="currentColor" d="m381.835938 296.476562c3.910156-3.910156 3.910156-10.242187 0-14.140624-3.902344-3.910157-10.242188-3.910157-14.144532 0-3.910156 3.898437-3.910156 10.230468 0 14.140624 3.902344 3.902344 10.242188 3.902344 14.144532 0zm0 0"/>
    <path fill="currentColor" d="m254.542969 155.042969c-3.902344-3.910157-10.242188-3.910157-14.144531 0-3.910157 3.898437-3.910157 10.230469 0 14.140625 3.902343 3.902344 10.242187 3.902344 14.144531 0 3.910156-3.910156 3.910156-10.242188 0-14.140625zm0 0"/>
    <path fill="currentColor" d="m247.472656 360.125c3.910156-3.914062 3.910156-10.242188 0-14.152344-3.914062-3.902344-10.242187-3.902344-14.144531 0-3.910156 3.910156-3.910156 10.238282 0 14.152344 3.902344 3.898438 10.230469 3.898438 14.144531 0zm0 0"/>
    <path fill="currentColor" d="m77.253906 352.523438 153.238282 57.714843c5.203124 1.957031 10.949218-.699219 12.886718-5.835937 1.945313-5.167969-.667968-10.9375-5.835937-12.882813l-154.210938-58.082031c39.191407-118.699219 131.90625-211.414062 250.605469-250.605469l151.414062 402.019531-172.894531-65.117187c-5.167969-1.949219-10.9375.664063-12.882812 5.835937-1.945313 5.167969.664062 10.9375 5.835937 12.882813l193.5625 72.902344c3.695313 1.394531 7.835938.472656 10.59375-2.289063 2.777344-2.773437 3.671875-6.917968 2.289063-10.59375l-158.835938-421.71875c26.003907-10.628906 33.171875-44.644531 12.910157-64.921875-9.433594-9.417969-22.671876-13.585937-35.40625-11.148437-166.476563 31.808594-297.410157 162.222656-329.339844 329.335937-2.4375 12.738281 1.726562 25.976563 11.152344 35.417969 20.304687 20.289062 54.300781 13.058594 64.917968-12.914062zm-56.425781-18.746094c30.546875-159.867188 153.582031-282.902344 313.449219-313.445313 6.296875-1.207031 12.828125.972657 17.511718 5.644531 10.671876 10.683594 6.019532 28.863282-8.484374 33.027344-136.707032 39.3125-244.253907 146.425782-283.804688 283.808594-4.164062 14.511719-22.359375 19.136719-33.015625 8.484375-4.734375-4.742187-6.847656-11.289063-5.65625-17.519531zm0 0"/>
    <path fill="currentColor" d="m226.257812 239.898438c-19.503906-19.492188-51.226562-19.492188-70.71875 0-19.539062 19.539062-19.542968 51.175781 0 70.71875 19.492188 19.492187 51.214844 19.492187 70.71875 0 19.542969-19.539063 19.542969-51.175782 0-70.71875zm-14.140624 56.574218c-11.703126 11.695313-30.738282 11.699219-42.433594.003906-11.722656-11.726562-11.726563-30.707031 0-42.433593 11.695312-11.695313 30.730468-11.695313 42.429687 0 11.722657 11.71875 11.730469 30.703125.003907 42.429687zm0 0"/>
    <path fill="currentColor" d="m346.472656 246.972656c15.597656-15.597656 15.597656-40.980468 0-56.578125-15.597656-15.59375-40.972656-15.59375-56.570312 0-15.597656 15.597657-15.597656 40.980469 0 56.578125 15.59375 15.59375 40.972656 15.597656 56.570312 0zm-42.425781-42.433594c7.792969-7.796874 20.484375-7.796874 28.28125 0 7.800781 7.800782 7.800781 20.492188 0 28.289063-7.796875 7.800781-20.484375 7.796875-28.28125 0-7.800781-7.796875-7.800781-20.488281 0-28.289063zm0 0"/>
    <path fill="currentColor" d="m318.183594 331.832031c-15.582032 15.597657-15.582032 40.976563.003906 56.574219 15.597656 15.597656 40.980469 15.597656 56.582031-.003906 15.582031-15.59375 15.582031-40.972656 0-56.570313-.003906 0-.007812-.003906-.007812-.003906-15.597657-15.585937-40.972657-15.585937-56.578125.003906zm42.4375 42.429688c-7.800782 7.800781-20.492188 7.800781-28.289063.003906-7.792969-7.800781-7.792969-20.496094-.003906-28.289063 7.800781-7.792968 20.492187-7.796874 28.292969-.003906 7.789062 7.800782 7.789062 20.492188 0 28.289063zm0 0"/>
    <path fill="currentColor" d="m264.40625 407.921875c-3.914062 3.898437-3.914062 10.230469 0 14.140625 3.898438 3.898438 10.238281 3.898438 14.140625 0 3.910156-3.910156 3.910156-10.242188 0-14.140625-3.902344-3.914063-10.242187-3.914063-14.140625 0zm0 0"/>
</svg>