<svg height="511pt" viewBox="-21 0 511 511.99992" width="511pt" xmlns="http://www.w3.org/2000/svg">
    <path fill="currentColor"
          d="m68.785156 500.3125 129.761719-129.769531c11.71875 11.71875 30.699219 11.71875 42.421875-.003907l7.066406-7.066406 14.136719 14.136719c3.90625 3.902344 10.234375 3.902344 14.140625 0l82.859375-82.863281c14.574219-14.570313 28.050781-30.441406 40.058594-47.175782 3.21875-4.484374 2.191406-10.730468-2.296875-13.949218-4.484375-3.21875-10.730469-2.191406-13.949219 2.292968-11.375 15.851563-24.144531 30.890626-37.949219 44.695313l-75.792968 75.792969-70.691407-70.695313 251.824219-251.824219c-1.042969 46.066407-10.992188 92.085938-29.171875 134.371094-2.183594 5.070313.164063 10.949219 5.234375 13.132813 5.074219 2.179687 10.953125-.164063 13.132812-5.234375 22.449219-52.210938 33.007813-109.816406 30.539063-166.589844-.171875-3.960938-2.667969-7.445312-6.363281-8.882812-3.699219-1.4375-7.894532-.554688-10.695313 2.25l-440.824219 440.824218c-15.632812 15.628906-15.640624 40.921875.003907 56.5625 15.589843 15.578125 40.960937 15.578125 56.554687-.003906zm-42.421875-42.421875 158.046875-158.042969 49.484375 49.488282-7.066406 7.066406c-3.90625 3.90625-10.234375 3.90625-14.144531 0l-7.066406-7.070313c-3.902344-3.898437-10.238282-3.902343-14.140626 0l-136.828124 136.839844c-7.796876 7.789063-20.484376 7.789063-28.28125 0-7.820313-7.816406-7.820313-20.460937-.003907-28.28125zm0 0"/>
    <path fill="currentColor" d="m422.476562 207.957031c0 5.519531-4.472656 9.996094-9.996093 9.996094-5.523438 0-9.996094-4.476563-9.996094-9.996094 0-5.523437 4.472656-10 9.996094-10 5.523437 0 9.996093 4.476563 9.996093 10zm0 0"/>
</svg>